<svg width="141" height="141" viewBox="0 0 141 141" fill="none" xmlns="http://www.w3.org/2000/svg">
<path d="M123.375 94.0105V46.9848C123.373 45.4457 122.968 43.9339 122.2 42.5999C121.433 41.2658 120.329 40.1562 118.999 39.3813L77.1397 15.0203C75.1229 13.8461 72.8309 13.2275 70.4972 13.2275C68.1636 13.2275 65.8716 13.8461 63.8548 15.0203L22.001 39.3813C20.6711 40.1562 19.5673 41.2658 18.7996 42.5999C18.0318 43.9339 17.6269 45.4457 17.625 46.9848V94.0105C17.6259 95.5506 18.0304 97.0636 18.7982 98.3987C19.566 99.7337 20.6703 100.844 22.001 101.62L63.8603 125.981C65.8777 127.153 68.1694 127.771 70.5028 127.771C72.8361 127.771 75.1278 127.153 77.1452 125.981L119.005 101.62C120.334 100.844 121.437 99.7327 122.204 98.3977C122.971 97.0627 123.375 95.5501 123.375 94.0105Z" stroke="white" stroke-linecap="round" stroke-linejoin="round"/>
<path d="M19.002 42.4072L70.5 72.7002M70.5 72.7002L121.998 42.4072M70.5 72.7002V127.778" stroke="white" stroke-linecap="round" stroke-linejoin="round"/>
<path d="M70.5 46.2656C74.1503 46.2656 77.1094 44.2929 77.1094 41.8594C77.1094 39.4259 74.1503 37.4531 70.5 37.4531C66.8497 37.4531 63.8906 39.4259 63.8906 41.8594C63.8906 44.2929 66.8497 46.2656 70.5 46.2656Z" fill="white"/>
<path d="M57.2812 88.125C59.7148 88.125 61.6875 85.1659 61.6875 81.5156C61.6875 77.8654 59.7148 74.9062 57.2812 74.9062C54.8477 74.9062 52.875 77.8654 52.875 81.5156C52.875 85.1659 54.8477 88.125 57.2812 88.125Z" fill="white"/>
<path d="M30.8438 96.9375C33.2773 96.9375 35.25 93.9784 35.25 90.3281C35.25 86.6779 33.2773 83.7188 30.8438 83.7188C28.4102 83.7188 26.4375 86.6779 26.4375 90.3281C26.4375 93.9784 28.4102 96.9375 30.8438 96.9375Z" fill="white"/>
<path d="M83.7188 88.125C86.1523 88.125 88.125 85.1659 88.125 81.5156C88.125 77.8654 86.1523 74.9062 83.7188 74.9062C81.2852 74.9062 79.3125 77.8654 79.3125 81.5156C79.3125 85.1659 81.2852 88.125 83.7188 88.125Z" fill="white"/>
<path d="M110.156 72.7031C112.59 72.7031 114.562 69.744 114.562 66.0938C114.562 62.4435 112.59 59.4844 110.156 59.4844C107.723 59.4844 105.75 62.4435 105.75 66.0938C105.75 69.744 107.723 72.7031 110.156 72.7031Z" fill="white"/>
<path d="M83.7188 112.359C86.1523 112.359 88.125 109.4 88.125 105.75C88.125 102.1 86.1523 99.1406 83.7188 99.1406C81.2852 99.1406 79.3125 102.1 79.3125 105.75C79.3125 109.4 81.2852 112.359 83.7188 112.359Z" fill="white"/>
<path d="M110.156 96.9375C112.59 96.9375 114.562 93.9784 114.562 90.3281C114.562 86.6779 112.59 83.7188 110.156 83.7188C107.723 83.7188 105.75 86.6779 105.75 90.3281C105.75 93.9784 107.723 96.9375 110.156 96.9375Z" fill="white"/>
</svg>
