<svg width="53" height="53" viewBox="0 0 53 53" fill="none" xmlns="http://www.w3.org/2000/svg">
<path d="M51.6523 26.6938C51.6521 40.7921 40.2089 52.2201 26.0947 52.2202C11.9805 52.2202 0.537316 40.7922 0.537109 26.6938C0.537109 12.5954 11.9804 1.1665 26.0947 1.1665C40.209 1.16657 51.6523 12.5954 51.6523 26.6938Z" fill="white" stroke="#6F6F6F" stroke-width="1.00104"/>
<path d="M13.9267 25.6316C13.3403 26.218 13.3403 27.1687 13.9267 27.7551L23.4825 37.311C24.0689 37.8974 25.0197 37.8974 25.6061 37.311C26.1925 36.7246 26.1925 35.7739 25.6061 35.1875L17.112 26.6934L25.6061 18.1993C26.1925 17.6129 26.1925 16.6621 25.6061 16.0757C25.0197 15.4893 24.0689 15.4893 23.4825 16.0757L13.9267 25.6316ZM36.8975 26.6934V25.1918H14.9884V26.6934V28.1949H36.8975V26.6934Z" fill="black"/>
</svg>
