<svg width="53" height="53" viewBox="0 0 53 53" fill="none" xmlns="http://www.w3.org/2000/svg">
<path d="M51.9893 26.6411C51.9891 12.5429 40.5458 1.11482 26.4316 1.11475C12.3174 1.11475 0.874229 12.5428 0.874023 26.6411C0.874023 40.7396 12.3173 52.1685 26.4316 52.1685C40.5459 52.1684 51.9893 40.7396 51.9893 26.6411Z" fill="white" stroke="#6F6F6F" stroke-width="1.00104"/>
<path d="M38.5987 27.7034C39.1851 27.117 39.1851 26.1662 38.5987 25.5798L29.0429 16.024C28.4565 15.4376 27.5057 15.4376 26.9193 16.024C26.3329 16.6104 26.3329 17.5611 26.9193 18.1475L35.4134 26.6416L26.9193 35.1357C26.3329 35.7221 26.3329 36.6728 26.9193 37.2592C27.5057 37.8456 28.4565 37.8456 29.0429 37.2592L38.5987 27.7034ZM15.6279 26.6416V28.1432H37.537V26.6416V25.14H15.6279V26.6416Z" fill="black"/>
</svg>
